<svg width="75" height="117" viewBox="0 0 75 117" fill="none" xmlns="http://www.w3.org/2000/svg">
<path d="M39.0001 0.803162C39.0001 0.803162 19.9685 18.8429 23.0001 32.3032C25.7969 44.7216 37 56.3032 47.5001 56.3032C53.0949 56.3032 58.7251 52.8005 60.0001 46.8032C61.5944 39.3032 54.9231 31.4124 47.5001 32.3032C35.0001 33.8032 28.221 39.8322 26 49.3032C25.5932 51.0379 25.7777 53.1135 26.318 55.3032" stroke="#C6C7D4" stroke-width="1.4" stroke-linecap="round" stroke-dasharray="2 2"/>
<path fill-rule="evenodd" clip-rule="evenodd" d="M72.0751 96.3875C72.0751 107.722 64.5869 114.402 51.8795 114.402H24.228C11.4883 114.402 4 107.722 4 96.3875V71.6938C4 60.3591 8.66801 53.6796 21.3754 53.6796H28.4746C31.0255 53.6796 33.4275 54.7509 34.958 56.5712L38.1996 60.4169C39.7335 62.2336 42.1333 63.3039 44.683 63.3084H54.7322C67.4719 63.3084 72.1724 69.0915 72.1724 80.6576L72.0751 96.3875Z" stroke="#2F3367" stroke-width="4" stroke-linecap="round" stroke-linejoin="round"/>
<path d="M20.9869 92.3683H55.0569" stroke="#2F3367" stroke-width="4" stroke-linecap="round" stroke-linejoin="round"/>
<path d="M55.2917 33.0208C55.2917 35.1724 53.5474 36.9167 51.3958 36.9167C49.2442 36.9167 47.5 35.1724 47.5 33.0208C47.5 30.8692 49.2442 29.125 51.3958 29.125C53.5474 29.125 55.2917 30.8692 55.2917 33.0208Z" fill="#616489"/>
<path d="M44.6666 33.0209C44.6666 34.3901 43.5567 35.5 42.1875 35.5C40.8183 35.5 39.7083 34.3901 39.7083 33.0209C39.7083 31.6516 40.8183 30.5417 42.1875 30.5417C43.5567 30.5417 44.6666 31.6516 44.6666 33.0209Z" fill="#323669"/>
<path d="M48.2084 39.0416C48.2084 40.6065 46.9398 41.875 45.375 41.875C43.8102 41.875 42.5417 40.6065 42.5417 39.0416C42.5417 37.4768 43.8102 36.2083 45.375 36.2083C46.9398 36.2083 48.2084 37.4768 48.2084 39.0416Z" fill="#323669"/>
</svg>
